<svg width="16" height="17" viewBox="0 0 16 17" fill="none" xmlns="http://www.w3.org/2000/svg">
<g clip-path="url(#clip0_341_4165)">
<path d="M14.5 16.5H1.5C0.67 16.5 0 15.83 0 15V3C0 2.17 0.67 1.5 1.5 1.5H14.5C15.33 1.5 16 2.17 16 3V15C16 15.83 15.33 16.5 14.5 16.5ZM1.5 2.5C1.22 2.5 1 2.72 1 3V15C1 15.28 1.22 15.5 1.5 15.5H14.5C14.78 15.5 15 15.28 15 15V3C15 2.72 14.78 2.5 14.5 2.5H1.5Z" fill="black"/>
<path d="M4.5 4.5C4.22 4.5 4 4.28 4 4V1C4 0.72 4.22 0.5 4.5 0.5C4.78 0.5 5 0.72 5 1V4C5 4.28 4.78 4.5 4.5 4.5ZM11.5 4.5C11.22 4.5 11 4.28 11 4V1C11 0.72 11.22 0.5 11.5 0.5C11.78 0.5 12 0.72 12 1V4C12 4.28 11.78 4.5 11.5 4.5ZM15.5 6.5H0.5C0.22 6.5 0 6.28 0 6C0 5.72 0.22 5.5 0.5 5.5H15.5C15.78 5.5 16 5.72 16 6C16 6.28 15.78 6.5 15.5 6.5Z" fill="black"/>
</g>
<defs>
<clipPath id="clip0_341_4165">
<rect width="16" height="16" fill="white" transform="translate(0 0.5)"/>
</clipPath>
</defs>
</svg>
